<mxfile host="app.diagrams.net" modified="2023-04-07T10:20:05.546Z" agent="Mozilla/5.0 (Macintosh; Intel Mac OS X 10.15; rv:109.0) Gecko/20100101 Firefox/111.0" etag="JMs6Gbb4y-ATpkqe4f7j" version="21.1.2" type="github">
  <diagram id="R2lEEEUBdFMjLlhIrx00" name="Page-1">
    <mxGraphModel dx="2385" dy="1435" grid="1" gridSize="10" guides="1" tooltips="1" connect="1" arrows="1" fold="1" page="1" pageScale="1" pageWidth="1654" pageHeight="1169" math="0" shadow="0" extFonts="Permanent Marker^https://fonts.googleapis.com/css?family=Permanent+Marker">
      <root>
        <mxCell id="0" />
        <mxCell id="1" parent="0" />
        <mxCell id="lAlPswCy58fTUQdY8r50-32" style="edgeStyle=orthogonalEdgeStyle;rounded=0;orthogonalLoop=1;jettySize=auto;html=1;exitX=0.5;exitY=0;exitDx=0;exitDy=0;entryX=0.5;entryY=1;entryDx=0;entryDy=0;endArrow=block;endFill=0;dashed=1;" parent="1" source="lAlPswCy58fTUQdY8r50-10" edge="1">
          <mxGeometry relative="1" as="geometry">
            <mxPoint x="602" y="289.9999999999999" as="targetPoint" />
          </mxGeometry>
        </mxCell>
        <mxCell id="lAlPswCy58fTUQdY8r50-55" style="edgeStyle=orthogonalEdgeStyle;rounded=0;orthogonalLoop=1;jettySize=auto;html=1;exitX=0.504;exitY=1.04;exitDx=0;exitDy=0;entryX=0.5;entryY=0;entryDx=0;entryDy=0;endArrow=diamond;endFill=0;exitPerimeter=0;" parent="1" target="lAlPswCy58fTUQdY8r50-47" edge="1" source="lAlPswCy58fTUQdY8r50-11">
          <mxGeometry relative="1" as="geometry">
            <mxPoint x="346.9999999999999" y="418" as="sourcePoint" />
            <mxPoint x="603" y="486" as="targetPoint" />
            <Array as="points">
              <mxPoint x="348" y="450" />
              <mxPoint x="604" y="450" />
            </Array>
          </mxGeometry>
        </mxCell>
        <mxCell id="lAlPswCy58fTUQdY8r50-10" value="&lt;b&gt;BankAccount&lt;/b&gt;" style="swimlane;fontStyle=1;align=center;verticalAlign=top;childLayout=stackLayout;horizontal=1;startSize=26;horizontalStack=0;resizeParent=1;resizeParentMax=0;resizeLast=0;collapsible=1;marginBottom=0;whiteSpace=wrap;html=1;" parent="1" vertex="1">
          <mxGeometry x="267" y="350" width="160" height="72" as="geometry">
            <mxRectangle x="50" y="440" width="120" height="30" as="alternateBounds" />
          </mxGeometry>
        </mxCell>
        <mxCell id="lAlPswCy58fTUQdY8r50-11" value="&lt;div&gt;+ cardNumber: String&lt;/div&gt;+ validity: Date&lt;div&gt;&lt;br&gt;&lt;/div&gt;" style="text;strokeColor=none;fillColor=none;align=left;verticalAlign=top;spacingLeft=4;spacingRight=4;overflow=hidden;rotatable=0;points=[[0,0.5],[1,0.5]];portConstraint=eastwest;whiteSpace=wrap;html=1;" parent="lAlPswCy58fTUQdY8r50-10" vertex="1">
          <mxGeometry y="26" width="160" height="44" as="geometry" />
        </mxCell>
        <mxCell id="lAlPswCy58fTUQdY8r50-12" value="" style="line;strokeWidth=1;fillColor=none;align=left;verticalAlign=middle;spacingTop=-1;spacingLeft=3;spacingRight=3;rotatable=0;labelPosition=right;points=[];portConstraint=eastwest;strokeColor=inherit;" parent="lAlPswCy58fTUQdY8r50-10" vertex="1">
          <mxGeometry y="70" width="160" height="2" as="geometry" />
        </mxCell>
        <mxCell id="lAlPswCy58fTUQdY8r50-43" style="edgeStyle=orthogonalEdgeStyle;rounded=0;orthogonalLoop=1;jettySize=auto;html=1;exitX=0.5;exitY=0;exitDx=0;exitDy=0;endArrow=none;endFill=0;dashed=1;" parent="1" source="lAlPswCy58fTUQdY8r50-14" edge="1">
          <mxGeometry relative="1" as="geometry">
            <mxPoint x="517.875" y="320" as="targetPoint" />
          </mxGeometry>
        </mxCell>
        <mxCell id="lAlPswCy58fTUQdY8r50-56" style="edgeStyle=orthogonalEdgeStyle;rounded=0;orthogonalLoop=1;jettySize=auto;html=1;endArrow=none;endFill=0;" parent="1" edge="1">
          <mxGeometry relative="1" as="geometry">
            <mxPoint x="517" y="450" as="targetPoint" />
            <mxPoint x="518" y="374" as="sourcePoint" />
            <Array as="points">
              <mxPoint x="517" y="374" />
            </Array>
          </mxGeometry>
        </mxCell>
        <mxCell id="lAlPswCy58fTUQdY8r50-14" value="Cash" style="swimlane;fontStyle=1;align=center;verticalAlign=top;childLayout=stackLayout;horizontal=1;startSize=26;horizontalStack=0;resizeParent=1;resizeParentMax=0;resizeLast=0;collapsible=1;marginBottom=0;whiteSpace=wrap;html=1;" parent="1" vertex="1">
          <mxGeometry x="438" y="350" width="160" height="28" as="geometry">
            <mxRectangle x="302" y="370" width="120" height="30" as="alternateBounds" />
          </mxGeometry>
        </mxCell>
        <mxCell id="lAlPswCy58fTUQdY8r50-16" value="" style="line;strokeWidth=1;fillColor=none;align=left;verticalAlign=middle;spacingTop=-1;spacingLeft=3;spacingRight=3;rotatable=0;labelPosition=right;points=[];portConstraint=eastwest;strokeColor=inherit;" parent="lAlPswCy58fTUQdY8r50-14" vertex="1">
          <mxGeometry y="26" width="160" height="2" as="geometry" />
        </mxCell>
        <mxCell id="lAlPswCy58fTUQdY8r50-42" style="edgeStyle=orthogonalEdgeStyle;rounded=0;orthogonalLoop=1;jettySize=auto;html=1;exitX=0.5;exitY=0;exitDx=0;exitDy=0;endArrow=none;endFill=0;dashed=1;" parent="1" source="lAlPswCy58fTUQdY8r50-25" edge="1">
          <mxGeometry relative="1" as="geometry">
            <mxPoint x="687.25" y="320" as="targetPoint" />
          </mxGeometry>
        </mxCell>
        <mxCell id="lAlPswCy58fTUQdY8r50-58" style="edgeStyle=orthogonalEdgeStyle;rounded=0;orthogonalLoop=1;jettySize=auto;html=1;endArrow=none;endFill=0;" parent="1" edge="1">
          <mxGeometry relative="1" as="geometry">
            <mxPoint x="687" y="450" as="targetPoint" />
            <mxPoint x="687" y="374" as="sourcePoint" />
          </mxGeometry>
        </mxCell>
        <mxCell id="lAlPswCy58fTUQdY8r50-25" value="Cryptocurrency" style="swimlane;fontStyle=1;align=center;verticalAlign=top;childLayout=stackLayout;horizontal=1;startSize=26;horizontalStack=0;resizeParent=1;resizeParentMax=0;resizeLast=0;collapsible=1;marginBottom=0;whiteSpace=wrap;html=1;" parent="1" vertex="1">
          <mxGeometry x="607" y="350" width="160" height="28" as="geometry">
            <mxRectangle x="50" y="440" width="120" height="30" as="alternateBounds" />
          </mxGeometry>
        </mxCell>
        <mxCell id="lAlPswCy58fTUQdY8r50-27" value="" style="line;strokeWidth=1;fillColor=none;align=left;verticalAlign=middle;spacingTop=-1;spacingLeft=3;spacingRight=3;rotatable=0;labelPosition=right;points=[];portConstraint=eastwest;strokeColor=inherit;" parent="lAlPswCy58fTUQdY8r50-25" vertex="1">
          <mxGeometry y="26" width="160" height="2" as="geometry" />
        </mxCell>
        <mxCell id="lAlPswCy58fTUQdY8r50-41" style="edgeStyle=orthogonalEdgeStyle;rounded=0;orthogonalLoop=1;jettySize=auto;html=1;exitX=0.5;exitY=0;exitDx=0;exitDy=0;entryX=0.5;entryY=1;entryDx=0;entryDy=0;endArrow=block;endFill=0;dashed=1;" parent="1" source="lAlPswCy58fTUQdY8r50-29" edge="1">
          <mxGeometry relative="1" as="geometry">
            <mxPoint x="602" y="289.9999999999999" as="targetPoint" />
          </mxGeometry>
        </mxCell>
        <mxCell id="lAlPswCy58fTUQdY8r50-57" style="edgeStyle=orthogonalEdgeStyle;rounded=0;orthogonalLoop=1;jettySize=auto;html=1;exitX=0.5;exitY=1;exitDx=0;exitDy=0;entryX=0.5;entryY=0;entryDx=0;entryDy=0;endArrow=diamond;endFill=0;" parent="1" source="lAlPswCy58fTUQdY8r50-29" target="lAlPswCy58fTUQdY8r50-47" edge="1">
          <mxGeometry relative="1" as="geometry">
            <Array as="points">
              <mxPoint x="867" y="450" />
              <mxPoint x="604" y="450" />
            </Array>
          </mxGeometry>
        </mxCell>
        <mxCell id="lAlPswCy58fTUQdY8r50-29" value="&lt;b&gt;UniversalCurrencyClass&lt;/b&gt;" style="swimlane;fontStyle=1;align=center;verticalAlign=top;childLayout=stackLayout;horizontal=1;startSize=26;horizontalStack=0;resizeParent=1;resizeParentMax=0;resizeLast=0;collapsible=1;marginBottom=0;whiteSpace=wrap;html=1;" parent="1" vertex="1">
          <mxGeometry x="777" y="350" width="180" height="52" as="geometry">
            <mxRectangle x="50" y="440" width="120" height="30" as="alternateBounds" />
          </mxGeometry>
        </mxCell>
        <mxCell id="lAlPswCy58fTUQdY8r50-30" value="&lt;div&gt;+ additionalInformation: String&lt;/div&gt;&lt;div&gt;&lt;br&gt;&lt;/div&gt;" style="text;strokeColor=none;fillColor=none;align=left;verticalAlign=top;spacingLeft=4;spacingRight=4;overflow=hidden;rotatable=0;points=[[0,0.5],[1,0.5]];portConstraint=eastwest;whiteSpace=wrap;html=1;" parent="lAlPswCy58fTUQdY8r50-29" vertex="1">
          <mxGeometry y="26" width="180" height="24" as="geometry" />
        </mxCell>
        <mxCell id="lAlPswCy58fTUQdY8r50-31" value="" style="line;strokeWidth=1;fillColor=none;align=left;verticalAlign=middle;spacingTop=-1;spacingLeft=3;spacingRight=3;rotatable=0;labelPosition=right;points=[];portConstraint=eastwest;strokeColor=inherit;" parent="lAlPswCy58fTUQdY8r50-29" vertex="1">
          <mxGeometry y="50" width="180" height="2" as="geometry" />
        </mxCell>
        <mxCell id="lAlPswCy58fTUQdY8r50-46" value="&lt;p style=&quot;margin:0px;margin-top:4px;text-align:center;&quot;&gt;&lt;i&gt;&amp;lt;&amp;lt;Interface&amp;gt;&amp;gt;&lt;/i&gt;&lt;br&gt;&lt;/p&gt;&lt;p style=&quot;margin:0px;margin-top:4px;text-align:center;&quot;&gt;&lt;b&gt;IMoneyStorage&lt;/b&gt;&lt;/p&gt;&lt;hr size=&quot;1&quot;&gt;&lt;p style=&quot;margin:0px;margin-left:4px;&quot;&gt;+ name: String&lt;br&gt;+ currency: String&lt;/p&gt;&lt;p style=&quot;margin:0px;margin-left:4px;&quot;&gt;+ balance: Double&lt;/p&gt;&lt;hr size=&quot;1&quot;&gt;&lt;p style=&quot;margin:0px;margin-left:4px;&quot;&gt;+ getLog(): LogObject&lt;br&gt;&lt;/p&gt;" style="verticalAlign=top;align=left;overflow=fill;fontSize=12;fontFamily=Helvetica;html=1;whiteSpace=wrap;" parent="1" vertex="1">
          <mxGeometry x="508" y="149" width="190" height="140" as="geometry" />
        </mxCell>
        <mxCell id="lAlPswCy58fTUQdY8r50-47" value="BudgetControl" style="swimlane;fontStyle=1;align=center;verticalAlign=top;childLayout=stackLayout;horizontal=1;startSize=26;horizontalStack=0;resizeParent=1;resizeParentMax=0;resizeLast=0;collapsible=1;marginBottom=0;whiteSpace=wrap;html=1;" parent="1" vertex="1">
          <mxGeometry x="509" y="470" width="189" height="204" as="geometry" />
        </mxCell>
        <mxCell id="lAlPswCy58fTUQdY8r50-48" value="&lt;div&gt;+ logMoneyStorage: LogObject&lt;/div&gt;&lt;div&gt;+ logSpending: LogObject&lt;br&gt;&lt;/div&gt;&lt;div&gt;+ logEarning: LogObject&lt;br&gt;&lt;/div&gt;" style="text;strokeColor=none;fillColor=none;align=left;verticalAlign=top;spacingLeft=4;spacingRight=4;overflow=hidden;rotatable=0;points=[[0,0.5],[1,0.5]];portConstraint=eastwest;whiteSpace=wrap;html=1;" parent="lAlPswCy58fTUQdY8r50-47" vertex="1">
          <mxGeometry y="26" width="189" height="54" as="geometry" />
        </mxCell>
        <mxCell id="lAlPswCy58fTUQdY8r50-49" value="" style="line;strokeWidth=1;fillColor=none;align=left;verticalAlign=middle;spacingTop=-1;spacingLeft=3;spacingRight=3;rotatable=0;labelPosition=right;points=[];portConstraint=eastwest;strokeColor=inherit;" parent="lAlPswCy58fTUQdY8r50-47" vertex="1">
          <mxGeometry y="80" width="189" height="8" as="geometry" />
        </mxCell>
        <mxCell id="lAlPswCy58fTUQdY8r50-50" value="&lt;div&gt;+ newSpending()&lt;/div&gt;&lt;div&gt;+ newExpense()&lt;/div&gt;&lt;div&gt;+ newEarning()&lt;/div&gt;&lt;div&gt;+ newIncome()&lt;/div&gt;&lt;div&gt;+ newCategory(String)&lt;/div&gt;&lt;div&gt;+ newMoneyStorage()&lt;br&gt;&lt;/div&gt;&lt;div&gt;+ getCategoryList(): list Category&lt;br&gt;&lt;/div&gt;" style="text;strokeColor=none;fillColor=none;align=left;verticalAlign=top;spacingLeft=4;spacingRight=4;overflow=hidden;rotatable=0;points=[[0,0.5],[1,0.5]];portConstraint=eastwest;whiteSpace=wrap;html=1;" parent="lAlPswCy58fTUQdY8r50-47" vertex="1">
          <mxGeometry y="88" width="189" height="116" as="geometry" />
        </mxCell>
        <mxCell id="lAlPswCy58fTUQdY8r50-51" value="Category" style="swimlane;fontStyle=1;align=center;verticalAlign=top;childLayout=stackLayout;horizontal=1;startSize=26;horizontalStack=0;resizeParent=1;resizeParentMax=0;resizeLast=0;collapsible=1;marginBottom=0;whiteSpace=wrap;html=1;" parent="1" vertex="1">
          <mxGeometry x="747" y="494" width="170" height="86" as="geometry" />
        </mxCell>
        <mxCell id="lAlPswCy58fTUQdY8r50-52" value="+ categoryName: String" style="text;strokeColor=none;fillColor=none;align=left;verticalAlign=top;spacingLeft=4;spacingRight=4;overflow=hidden;rotatable=0;points=[[0,0.5],[1,0.5]];portConstraint=eastwest;whiteSpace=wrap;html=1;" parent="lAlPswCy58fTUQdY8r50-51" vertex="1">
          <mxGeometry y="26" width="170" height="26" as="geometry" />
        </mxCell>
        <mxCell id="lAlPswCy58fTUQdY8r50-53" value="" style="line;strokeWidth=1;fillColor=none;align=left;verticalAlign=middle;spacingTop=-1;spacingLeft=3;spacingRight=3;rotatable=0;labelPosition=right;points=[];portConstraint=eastwest;strokeColor=inherit;" parent="lAlPswCy58fTUQdY8r50-51" vertex="1">
          <mxGeometry y="52" width="170" height="8" as="geometry" />
        </mxCell>
        <mxCell id="lAlPswCy58fTUQdY8r50-54" value="+ newCategoryName(String)" style="text;strokeColor=none;fillColor=none;align=left;verticalAlign=top;spacingLeft=4;spacingRight=4;overflow=hidden;rotatable=0;points=[[0,0.5],[1,0.5]];portConstraint=eastwest;whiteSpace=wrap;html=1;" parent="lAlPswCy58fTUQdY8r50-51" vertex="1">
          <mxGeometry y="60" width="170" height="26" as="geometry" />
        </mxCell>
        <mxCell id="lAlPswCy58fTUQdY8r50-59" style="edgeStyle=orthogonalEdgeStyle;rounded=0;orthogonalLoop=1;jettySize=auto;html=1;exitX=0;exitY=0.5;exitDx=0;exitDy=0;entryX=1;entryY=0.5;entryDx=0;entryDy=0;endArrow=diamond;endFill=0;" parent="1" source="lAlPswCy58fTUQdY8r50-52" target="lAlPswCy58fTUQdY8r50-47" edge="1">
          <mxGeometry relative="1" as="geometry" />
        </mxCell>
        <mxCell id="lAlPswCy58fTUQdY8r50-60" value="User" style="swimlane;fontStyle=1;align=center;verticalAlign=top;childLayout=stackLayout;horizontal=1;startSize=26;horizontalStack=0;resizeParent=1;resizeParentMax=0;resizeLast=0;collapsible=1;marginBottom=0;whiteSpace=wrap;html=1;" parent="1" vertex="1">
          <mxGeometry x="277" y="490" width="180" height="230" as="geometry" />
        </mxCell>
        <mxCell id="lAlPswCy58fTUQdY8r50-61" value="&lt;div&gt;+ name: String&lt;/div&gt;&lt;div&gt;+ login: String&lt;/div&gt;&lt;div&gt;+ password: String&lt;br&gt;&lt;/div&gt;&lt;div&gt;+ mail: String&lt;/div&gt;&lt;div&gt;+ defaultCurrency: String&lt;br&gt;&lt;/div&gt;&lt;div&gt;+ region: String&lt;br&gt;&lt;/div&gt;" style="text;strokeColor=none;fillColor=none;align=left;verticalAlign=top;spacingLeft=4;spacingRight=4;overflow=hidden;rotatable=0;points=[[0,0.5],[1,0.5]];portConstraint=eastwest;whiteSpace=wrap;html=1;" parent="lAlPswCy58fTUQdY8r50-60" vertex="1">
          <mxGeometry y="26" width="180" height="94" as="geometry" />
        </mxCell>
        <mxCell id="lAlPswCy58fTUQdY8r50-62" value="" style="line;strokeWidth=1;fillColor=none;align=left;verticalAlign=middle;spacingTop=-1;spacingLeft=3;spacingRight=3;rotatable=0;labelPosition=right;points=[];portConstraint=eastwest;strokeColor=inherit;" parent="lAlPswCy58fTUQdY8r50-60" vertex="1">
          <mxGeometry y="120" width="180" height="8" as="geometry" />
        </mxCell>
        <mxCell id="lAlPswCy58fTUQdY8r50-63" value="&lt;div&gt;+ newName(String)&lt;/div&gt;&lt;div&gt;+ newLogin(String)&lt;/div&gt;&lt;div&gt;+ newPassword(String)&lt;/div&gt;&lt;div&gt;+ newMail(String)&lt;/div&gt;&lt;div&gt;+ newDefaultCurrency(String)&lt;br&gt;&lt;/div&gt;+ newRegion(String)" style="text;strokeColor=none;fillColor=none;align=left;verticalAlign=top;spacingLeft=4;spacingRight=4;overflow=hidden;rotatable=0;points=[[0,0.5],[1,0.5]];portConstraint=eastwest;whiteSpace=wrap;html=1;" parent="lAlPswCy58fTUQdY8r50-60" vertex="1">
          <mxGeometry y="128" width="180" height="102" as="geometry" />
        </mxCell>
        <mxCell id="lAlPswCy58fTUQdY8r50-64" style="edgeStyle=orthogonalEdgeStyle;rounded=0;orthogonalLoop=1;jettySize=auto;html=1;exitX=1;exitY=0.798;exitDx=0;exitDy=0;endArrow=diamond;endFill=1;exitPerimeter=0;entryX=-0.003;entryY=0.284;entryDx=0;entryDy=0;entryPerimeter=0;" parent="1" source="lAlPswCy58fTUQdY8r50-61" target="lAlPswCy58fTUQdY8r50-50" edge="1">
          <mxGeometry relative="1" as="geometry">
            <mxPoint x="507" y="590" as="targetPoint" />
            <Array as="points" />
          </mxGeometry>
        </mxCell>
        <mxCell id="lAlPswCy58fTUQdY8r50-65" value="&lt;p style=&quot;margin:0px;margin-top:4px;text-align:center;&quot;&gt;&lt;i&gt;&amp;lt;&amp;lt;Interface&amp;gt;&amp;gt;&lt;/i&gt;&lt;br&gt;&lt;/p&gt;&lt;p style=&quot;margin:0px;margin-top:4px;text-align:center;&quot;&gt;&lt;b&gt;ISpending&lt;/b&gt;&lt;/p&gt;&lt;hr size=&quot;1&quot;&gt;&lt;p style=&quot;margin:0px;margin-left:4px;&quot;&gt;+ name: String&lt;br&gt;+ startDate: Date&lt;/p&gt;&lt;p style=&quot;margin:0px;margin-left:4px;&quot;&gt;+ endDate: Date&lt;/p&gt;&lt;p style=&quot;margin:0px;margin-left:4px;&quot;&gt;+ disbursement: int&lt;/p&gt;&lt;p style=&quot;margin:0px;margin-left:4px;&quot;&gt;+ totalAmount: int&lt;/p&gt;&lt;p style=&quot;margin:0px;margin-left:4px;&quot;&gt;- category: list Category&lt;/p&gt;&lt;hr size=&quot;1&quot;&gt;&lt;p style=&quot;margin:0px;margin-left:4px;&quot;&gt;+ getLog(): LogObject&lt;/p&gt;&lt;p style=&quot;margin:0px;margin-left:4px;&quot;&gt;+ changingConditions(name, startDate, endDate, disbursement, totalAmount)&lt;/p&gt;&lt;p style=&quot;margin:0px;margin-left:4px;&quot;&gt;+ addCategory(Category)&lt;/p&gt;&lt;p style=&quot;margin:0px;margin-left:4px;&quot;&gt;+ deleteCategory(Category)&lt;/p&gt;&lt;p style=&quot;margin:0px;margin-left:4px;&quot;&gt;+ redemption(int)&lt;br&gt;&lt;/p&gt;&lt;div&gt;&amp;nbsp;+ categoryReset(list Category)&lt;/div&gt;" style="verticalAlign=top;align=left;overflow=fill;fontSize=12;fontFamily=Helvetica;html=1;whiteSpace=wrap;" parent="1" vertex="1">
          <mxGeometry x="297" y="813" width="190" height="277" as="geometry" />
        </mxCell>
        <mxCell id="lAlPswCy58fTUQdY8r50-81" style="edgeStyle=orthogonalEdgeStyle;rounded=0;orthogonalLoop=1;jettySize=auto;html=1;exitX=0.5;exitY=0;exitDx=0;exitDy=0;endArrow=diamond;endFill=1;entryX=0.149;entryY=1.007;entryDx=0;entryDy=0;entryPerimeter=0;" parent="1" source="lAlPswCy58fTUQdY8r50-68" target="lAlPswCy58fTUQdY8r50-50" edge="1">
          <mxGeometry relative="1" as="geometry">
            <mxPoint x="537" y="690" as="targetPoint" />
            <Array as="points">
              <mxPoint x="652" y="730" />
              <mxPoint x="537" y="730" />
            </Array>
          </mxGeometry>
        </mxCell>
        <mxCell id="lAlPswCy58fTUQdY8r50-68" value="InterestFreeDebt" style="swimlane;fontStyle=1;align=center;verticalAlign=top;childLayout=stackLayout;horizontal=1;startSize=26;horizontalStack=0;resizeParent=1;resizeParentMax=0;resizeLast=0;collapsible=1;marginBottom=0;whiteSpace=wrap;html=1;" parent="1" vertex="1">
          <mxGeometry x="557" y="813" width="190" height="90" as="geometry" />
        </mxCell>
        <mxCell id="lAlPswCy58fTUQdY8r50-77" style="edgeStyle=orthogonalEdgeStyle;rounded=0;orthogonalLoop=1;jettySize=auto;html=1;exitX=-0.008;exitY=0.697;exitDx=0;exitDy=0;endArrow=none;endFill=0;dashed=1;exitPerimeter=0;" parent="lAlPswCy58fTUQdY8r50-68" source="lAlPswCy58fTUQdY8r50-69" edge="1">
          <mxGeometry relative="1" as="geometry">
            <mxPoint x="-35" y="137" as="targetPoint" />
            <mxPoint x="5" y="44" as="sourcePoint" />
          </mxGeometry>
        </mxCell>
        <mxCell id="lAlPswCy58fTUQdY8r50-69" value="- moneySpendingCycleTime: int" style="text;strokeColor=none;fillColor=none;align=left;verticalAlign=top;spacingLeft=4;spacingRight=4;overflow=hidden;rotatable=0;points=[[0,0.5],[1,0.5]];portConstraint=eastwest;whiteSpace=wrap;html=1;" parent="lAlPswCy58fTUQdY8r50-68" vertex="1">
          <mxGeometry y="26" width="190" height="26" as="geometry" />
        </mxCell>
        <mxCell id="lAlPswCy58fTUQdY8r50-70" value="" style="line;strokeWidth=1;fillColor=none;align=left;verticalAlign=middle;spacingTop=-1;spacingLeft=3;spacingRight=3;rotatable=0;labelPosition=right;points=[];portConstraint=eastwest;strokeColor=inherit;" parent="lAlPswCy58fTUQdY8r50-68" vertex="1">
          <mxGeometry y="52" width="190" height="8" as="geometry" />
        </mxCell>
        <mxCell id="lAlPswCy58fTUQdY8r50-71" value="+ newSpendingCycleTime(int)" style="text;strokeColor=none;fillColor=none;align=left;verticalAlign=top;spacingLeft=4;spacingRight=4;overflow=hidden;rotatable=0;points=[[0,0.5],[1,0.5]];portConstraint=eastwest;whiteSpace=wrap;html=1;" parent="lAlPswCy58fTUQdY8r50-68" vertex="1">
          <mxGeometry y="60" width="190" height="30" as="geometry" />
        </mxCell>
        <mxCell id="lAlPswCy58fTUQdY8r50-72" value="InterestDebt" style="swimlane;fontStyle=1;align=center;verticalAlign=top;childLayout=stackLayout;horizontal=1;startSize=26;horizontalStack=0;resizeParent=1;resizeParentMax=0;resizeLast=0;collapsible=1;marginBottom=0;whiteSpace=wrap;html=1;" parent="1" vertex="1">
          <mxGeometry x="557" y="923" width="190" height="120" as="geometry" />
        </mxCell>
        <mxCell id="lAlPswCy58fTUQdY8r50-73" value="&lt;div&gt;- moneySpendingCycleTime: int&lt;/div&gt;&lt;div&gt;- percent: int&lt;br&gt;&lt;/div&gt;" style="text;strokeColor=none;fillColor=none;align=left;verticalAlign=top;spacingLeft=4;spacingRight=4;overflow=hidden;rotatable=0;points=[[0,0.5],[1,0.5]];portConstraint=eastwest;whiteSpace=wrap;html=1;" parent="lAlPswCy58fTUQdY8r50-72" vertex="1">
          <mxGeometry y="26" width="190" height="44" as="geometry" />
        </mxCell>
        <mxCell id="lAlPswCy58fTUQdY8r50-74" value="" style="line;strokeWidth=1;fillColor=none;align=left;verticalAlign=middle;spacingTop=-1;spacingLeft=3;spacingRight=3;rotatable=0;labelPosition=right;points=[];portConstraint=eastwest;strokeColor=inherit;" parent="lAlPswCy58fTUQdY8r50-72" vertex="1">
          <mxGeometry y="70" width="190" height="10" as="geometry" />
        </mxCell>
        <mxCell id="lAlPswCy58fTUQdY8r50-82" style="edgeStyle=orthogonalEdgeStyle;rounded=0;orthogonalLoop=1;jettySize=auto;html=1;exitX=1;exitY=0.5;exitDx=0;exitDy=0;endArrow=none;endFill=0;jumpStyle=arc;" parent="lAlPswCy58fTUQdY8r50-72" source="lAlPswCy58fTUQdY8r50-75" edge="1">
          <mxGeometry relative="1" as="geometry">
            <mxPoint x="95" y="-153" as="targetPoint" />
            <mxPoint x="185" y="100" as="sourcePoint" />
            <Array as="points">
              <mxPoint x="240" y="100" />
              <mxPoint x="240" y="-154" />
              <mxPoint x="95" y="-154" />
            </Array>
          </mxGeometry>
        </mxCell>
        <mxCell id="lAlPswCy58fTUQdY8r50-75" value="&lt;div&gt;+ newSpendingCycleTime(int)&lt;br&gt;+ newPercent(int)&lt;br&gt;&lt;/div&gt;" style="text;strokeColor=none;fillColor=none;align=left;verticalAlign=top;spacingLeft=4;spacingRight=4;overflow=hidden;rotatable=0;points=[[0,0.5],[1,0.5]];portConstraint=eastwest;whiteSpace=wrap;html=1;" parent="lAlPswCy58fTUQdY8r50-72" vertex="1">
          <mxGeometry y="80" width="190" height="40" as="geometry" />
        </mxCell>
        <mxCell id="lAlPswCy58fTUQdY8r50-76" style="edgeStyle=orthogonalEdgeStyle;rounded=0;orthogonalLoop=1;jettySize=auto;html=1;exitX=0;exitY=0.5;exitDx=0;exitDy=0;entryX=1;entryY=0.5;entryDx=0;entryDy=0;endArrow=block;endFill=0;dashed=1;" parent="1" source="lAlPswCy58fTUQdY8r50-73" target="lAlPswCy58fTUQdY8r50-65" edge="1">
          <mxGeometry relative="1" as="geometry" />
        </mxCell>
        <mxCell id="lAlPswCy58fTUQdY8r50-78" style="edgeStyle=orthogonalEdgeStyle;rounded=0;orthogonalLoop=1;jettySize=auto;html=1;exitX=1;exitY=0.5;exitDx=0;exitDy=0;entryX=0.25;entryY=1;entryDx=0;entryDy=0;entryPerimeter=0;endArrow=none;endFill=0;jumpStyle=arc;" parent="1" source="lAlPswCy58fTUQdY8r50-69" target="lAlPswCy58fTUQdY8r50-54" edge="1">
          <mxGeometry relative="1" as="geometry">
            <Array as="points">
              <mxPoint x="777" y="852" />
              <mxPoint x="777" y="580" />
            </Array>
          </mxGeometry>
        </mxCell>
        <mxCell id="lAlPswCy58fTUQdY8r50-79" style="edgeStyle=orthogonalEdgeStyle;rounded=0;orthogonalLoop=1;jettySize=auto;html=1;exitX=1;exitY=0.5;exitDx=0;exitDy=0;entryX=0.313;entryY=1;entryDx=0;entryDy=0;entryPerimeter=0;endArrow=none;endFill=0;jumpStyle=arc;" parent="1" source="lAlPswCy58fTUQdY8r50-73" target="lAlPswCy58fTUQdY8r50-54" edge="1">
          <mxGeometry relative="1" as="geometry">
            <Array as="points">
              <mxPoint x="787" y="971" />
              <mxPoint x="787" y="580" />
            </Array>
          </mxGeometry>
        </mxCell>
        <mxCell id="lAlPswCy58fTUQdY8r50-91" style="edgeStyle=orthogonalEdgeStyle;rounded=0;orthogonalLoop=1;jettySize=auto;html=1;exitX=0.5;exitY=0;exitDx=0;exitDy=0;entryX=0.315;entryY=1.006;entryDx=0;entryDy=0;entryPerimeter=0;endArrow=none;endFill=0;jumpStyle=arc;" parent="1" source="lAlPswCy58fTUQdY8r50-83" target="lAlPswCy58fTUQdY8r50-50" edge="1">
          <mxGeometry relative="1" as="geometry">
            <Array as="points">
              <mxPoint x="912" y="720" />
              <mxPoint x="569" y="720" />
            </Array>
          </mxGeometry>
        </mxCell>
        <mxCell id="lAlPswCy58fTUQdY8r50-83" value="OneTimeExpense" style="swimlane;fontStyle=1;align=center;verticalAlign=top;childLayout=stackLayout;horizontal=1;startSize=26;horizontalStack=0;resizeParent=1;resizeParentMax=0;resizeLast=0;collapsible=1;marginBottom=0;whiteSpace=wrap;html=1;" parent="1" vertex="1">
          <mxGeometry x="817" y="740" width="190" height="150" as="geometry" />
        </mxCell>
        <mxCell id="lAlPswCy58fTUQdY8r50-85" value="&lt;div&gt;- dataTime: Data&lt;br&gt;&lt;/div&gt;&lt;div&gt;- amount: int&lt;br&gt;&lt;/div&gt;&lt;div&gt;- category: list Category&lt;br&gt;&lt;/div&gt;&lt;div&gt;&lt;br&gt;&lt;/div&gt;" style="text;strokeColor=none;fillColor=none;align=left;verticalAlign=top;spacingLeft=4;spacingRight=4;overflow=hidden;rotatable=0;points=[[0,0.5],[1,0.5]];portConstraint=eastwest;whiteSpace=wrap;html=1;" parent="lAlPswCy58fTUQdY8r50-83" vertex="1">
          <mxGeometry y="26" width="190" height="54" as="geometry" />
        </mxCell>
        <mxCell id="lAlPswCy58fTUQdY8r50-86" value="" style="line;strokeWidth=1;fillColor=none;align=left;verticalAlign=middle;spacingTop=-1;spacingLeft=3;spacingRight=3;rotatable=0;labelPosition=right;points=[];portConstraint=eastwest;strokeColor=inherit;" parent="lAlPswCy58fTUQdY8r50-83" vertex="1">
          <mxGeometry y="80" width="190" height="8" as="geometry" />
        </mxCell>
        <mxCell id="lAlPswCy58fTUQdY8r50-87" value="&lt;div&gt;+ dataReset(int)&lt;/div&gt;&lt;div&gt;+ amountReset(Data)&lt;/div&gt;&lt;div&gt;+ categoryReset(list Category)&lt;br&gt;&lt;/div&gt;" style="text;strokeColor=none;fillColor=none;align=left;verticalAlign=top;spacingLeft=4;spacingRight=4;overflow=hidden;rotatable=0;points=[[0,0.5],[1,0.5]];portConstraint=eastwest;whiteSpace=wrap;html=1;" parent="lAlPswCy58fTUQdY8r50-83" vertex="1">
          <mxGeometry y="88" width="190" height="62" as="geometry" />
        </mxCell>
        <mxCell id="lAlPswCy58fTUQdY8r50-101" style="edgeStyle=orthogonalEdgeStyle;rounded=0;orthogonalLoop=1;jettySize=auto;html=1;exitX=0.5;exitY=0;exitDx=0;exitDy=0;entryX=0.5;entryY=1;entryDx=0;entryDy=0;endArrow=none;endFill=0;jumpStyle=arc;" parent="1" source="lAlPswCy58fTUQdY8r50-93" target="lAlPswCy58fTUQdY8r50-47" edge="1">
          <mxGeometry relative="1" as="geometry" />
        </mxCell>
        <mxCell id="lAlPswCy58fTUQdY8r50-93" value="PermanentIncome" style="swimlane;fontStyle=1;align=center;verticalAlign=top;childLayout=stackLayout;horizontal=1;startSize=26;horizontalStack=0;resizeParent=1;resizeParentMax=0;resizeLast=0;collapsible=1;marginBottom=0;whiteSpace=wrap;html=1;" parent="1" vertex="1">
          <mxGeometry x="1037" y="738" width="170" height="240" as="geometry" />
        </mxCell>
        <mxCell id="lAlPswCy58fTUQdY8r50-94" value="&lt;p style=&quot;margin:0px;margin-left:4px;&quot;&gt;+ name: String&lt;br&gt;+ startDate: Date&lt;/p&gt;&lt;p style=&quot;margin:0px;margin-left:4px;&quot;&gt;+ endDate: Date&lt;/p&gt;&lt;p style=&quot;margin:0px;margin-left:4px;&quot;&gt;+ automaticallyEnroll: Bool&lt;/p&gt;&lt;p style=&quot;margin:0px;margin-left:4px;&quot;&gt;+ totalAmount: int&lt;/p&gt;+ taxPercentage: int" style="text;strokeColor=none;fillColor=none;align=left;verticalAlign=top;spacingLeft=4;spacingRight=4;overflow=hidden;rotatable=0;points=[[0,0.5],[1,0.5]];portConstraint=eastwest;whiteSpace=wrap;html=1;" parent="lAlPswCy58fTUQdY8r50-93" vertex="1">
          <mxGeometry y="26" width="170" height="94" as="geometry" />
        </mxCell>
        <mxCell id="lAlPswCy58fTUQdY8r50-95" value="" style="line;strokeWidth=1;fillColor=none;align=left;verticalAlign=middle;spacingTop=-1;spacingLeft=3;spacingRight=3;rotatable=0;labelPosition=right;points=[];portConstraint=eastwest;strokeColor=inherit;" parent="lAlPswCy58fTUQdY8r50-93" vertex="1">
          <mxGeometry y="120" width="170" height="8" as="geometry" />
        </mxCell>
        <mxCell id="lAlPswCy58fTUQdY8r50-96" value="&lt;p style=&quot;margin:0px;margin-left:4px;&quot;&gt;+ getLog(): LogObject&lt;/p&gt;&lt;p style=&quot;margin:0px;margin-left:4px;&quot;&gt;+ changingConditions(name, startDate, endDate, disbursement, totalAmount)&lt;/p&gt;&lt;p style=&quot;margin:0px;margin-left:4px;&quot;&gt;+ addCategory(Category)&lt;/p&gt;&lt;p style=&quot;margin:0px;margin-left:4px;&quot;&gt;+ deleteCategory(Category)&lt;/p&gt;+ newEarning(int)" style="text;strokeColor=none;fillColor=none;align=left;verticalAlign=top;spacingLeft=4;spacingRight=4;overflow=hidden;rotatable=0;points=[[0,0.5],[1,0.5]];portConstraint=eastwest;whiteSpace=wrap;html=1;" parent="lAlPswCy58fTUQdY8r50-93" vertex="1">
          <mxGeometry y="128" width="170" height="112" as="geometry" />
        </mxCell>
        <mxCell id="lAlPswCy58fTUQdY8r50-102" style="edgeStyle=orthogonalEdgeStyle;rounded=0;orthogonalLoop=1;jettySize=auto;html=1;exitX=0.5;exitY=0;exitDx=0;exitDy=0;entryX=0.681;entryY=1;entryDx=0;entryDy=0;entryPerimeter=0;endArrow=none;endFill=0;jumpStyle=arc;" parent="1" source="lAlPswCy58fTUQdY8r50-97" target="lAlPswCy58fTUQdY8r50-50" edge="1">
          <mxGeometry relative="1" as="geometry">
            <Array as="points">
              <mxPoint x="1313" y="690" />
              <mxPoint x="638" y="690" />
            </Array>
          </mxGeometry>
        </mxCell>
        <mxCell id="lAlPswCy58fTUQdY8r50-97" value="OneTimeIncome" style="swimlane;fontStyle=1;align=center;verticalAlign=top;childLayout=stackLayout;horizontal=1;startSize=26;horizontalStack=0;resizeParent=1;resizeParentMax=0;resizeLast=0;collapsible=1;marginBottom=0;whiteSpace=wrap;html=1;" parent="1" vertex="1">
          <mxGeometry x="1233" y="740" width="160" height="86" as="geometry" />
        </mxCell>
        <mxCell id="lAlPswCy58fTUQdY8r50-98" value="+ name: String" style="text;strokeColor=none;fillColor=none;align=left;verticalAlign=top;spacingLeft=4;spacingRight=4;overflow=hidden;rotatable=0;points=[[0,0.5],[1,0.5]];portConstraint=eastwest;whiteSpace=wrap;html=1;" parent="lAlPswCy58fTUQdY8r50-97" vertex="1">
          <mxGeometry y="26" width="160" height="26" as="geometry" />
        </mxCell>
        <mxCell id="lAlPswCy58fTUQdY8r50-99" value="" style="line;strokeWidth=1;fillColor=none;align=left;verticalAlign=middle;spacingTop=-1;spacingLeft=3;spacingRight=3;rotatable=0;labelPosition=right;points=[];portConstraint=eastwest;strokeColor=inherit;" parent="lAlPswCy58fTUQdY8r50-97" vertex="1">
          <mxGeometry y="52" width="160" height="8" as="geometry" />
        </mxCell>
        <mxCell id="lAlPswCy58fTUQdY8r50-100" value="+ method(type): type" style="text;strokeColor=none;fillColor=none;align=left;verticalAlign=top;spacingLeft=4;spacingRight=4;overflow=hidden;rotatable=0;points=[[0,0.5],[1,0.5]];portConstraint=eastwest;whiteSpace=wrap;html=1;" parent="lAlPswCy58fTUQdY8r50-97" vertex="1">
          <mxGeometry y="60" width="160" height="26" as="geometry" />
        </mxCell>
        <mxCell id="Tsm6eNAXbn-egcAqX1Hi-1" value="GoalsModule" style="swimlane;fontStyle=1;align=center;verticalAlign=top;childLayout=stackLayout;horizontal=1;startSize=26;horizontalStack=0;resizeParent=1;resizeParentMax=0;resizeLast=0;collapsible=1;marginBottom=0;whiteSpace=wrap;html=1;" vertex="1" parent="1">
          <mxGeometry x="959" y="425" width="190" height="140" as="geometry" />
        </mxCell>
        <mxCell id="Tsm6eNAXbn-egcAqX1Hi-2" value="&lt;div&gt;+ goalsList: list&amp;lt;Goal&amp;gt;&lt;br&gt;&lt;/div&gt;&lt;div&gt;+ log: LogObject&lt;br&gt;&lt;/div&gt;" style="text;strokeColor=none;fillColor=none;align=left;verticalAlign=top;spacingLeft=4;spacingRight=4;overflow=hidden;rotatable=0;points=[[0,0.5],[1,0.5]];portConstraint=eastwest;whiteSpace=wrap;html=1;" vertex="1" parent="Tsm6eNAXbn-egcAqX1Hi-1">
          <mxGeometry y="26" width="190" height="54" as="geometry" />
        </mxCell>
        <mxCell id="Tsm6eNAXbn-egcAqX1Hi-3" value="" style="line;strokeWidth=1;fillColor=none;align=left;verticalAlign=middle;spacingTop=-1;spacingLeft=3;spacingRight=3;rotatable=0;labelPosition=right;points=[];portConstraint=eastwest;strokeColor=inherit;" vertex="1" parent="Tsm6eNAXbn-egcAqX1Hi-1">
          <mxGeometry y="80" width="190" height="8" as="geometry" />
        </mxCell>
        <mxCell id="Tsm6eNAXbn-egcAqX1Hi-4" value="&lt;div&gt;+ newGoal(Date, Date, int, int, int, int, int)&lt;/div&gt;&lt;div&gt;+ getLog()&lt;br&gt;&lt;/div&gt;" style="text;strokeColor=none;fillColor=none;align=left;verticalAlign=top;spacingLeft=4;spacingRight=4;overflow=hidden;rotatable=0;points=[[0,0.5],[1,0.5]];portConstraint=eastwest;whiteSpace=wrap;html=1;" vertex="1" parent="Tsm6eNAXbn-egcAqX1Hi-1">
          <mxGeometry y="88" width="190" height="52" as="geometry" />
        </mxCell>
        <mxCell id="Tsm6eNAXbn-egcAqX1Hi-11" style="edgeStyle=orthogonalEdgeStyle;rounded=0;orthogonalLoop=1;jettySize=auto;html=1;endArrow=none;endFill=0;jumpStyle=arc;" edge="1" parent="1" source="Tsm6eNAXbn-egcAqX1Hi-5" target="lAlPswCy58fTUQdY8r50-50">
          <mxGeometry relative="1" as="geometry">
            <Array as="points">
              <mxPoint x="1292" y="653" />
            </Array>
          </mxGeometry>
        </mxCell>
        <mxCell id="Tsm6eNAXbn-egcAqX1Hi-5" value="Goal" style="swimlane;fontStyle=1;align=center;verticalAlign=top;childLayout=stackLayout;horizontal=1;startSize=26;horizontalStack=0;resizeParent=1;resizeParentMax=0;resizeLast=0;collapsible=1;marginBottom=0;whiteSpace=wrap;html=1;" vertex="1" parent="1">
          <mxGeometry x="1177" y="400" width="230" height="210" as="geometry" />
        </mxCell>
        <mxCell id="Tsm6eNAXbn-egcAqX1Hi-6" value="&lt;div&gt;+ checkpointStart: Date&lt;br&gt;&lt;/div&gt;&lt;div&gt;+ checkpointEnd: Date&lt;/div&gt;&lt;div&gt;+ requiredMoneyAmount: int&lt;/div&gt;&lt;div&gt;+ requiredMoneySpentAmount: int&lt;span class=&quot;HwtZe&quot; lang=&quot;en&quot;&gt;&lt;/span&gt;&lt;/div&gt;&lt;div&gt;+ requiredAmountNetProfit: int&lt;/div&gt;&lt;div&gt;+ requiredRatioOfIncomeToExpenses: int&lt;/div&gt;&lt;div&gt;+ percentageOfGoalCompletion: int&lt;/div&gt;&lt;div&gt;- goalLog: LogObject&lt;br&gt;&lt;/div&gt;&lt;div&gt;&lt;span class=&quot;HwtZe&quot; lang=&quot;en&quot;&gt;&lt;/span&gt;&lt;/div&gt;&lt;div&gt;&lt;span class=&quot;HwtZe&quot; lang=&quot;en&quot;&gt;&lt;/span&gt;&lt;div class=&quot;lRu31&quot;&gt;&lt;span class=&quot;HwtZe&quot; lang=&quot;en&quot;&gt;&lt;/span&gt;&lt;span class=&quot;HwtZe&quot; lang=&quot;en&quot;&gt;&lt;/span&gt;&lt;/div&gt;&lt;/div&gt;" style="text;strokeColor=none;fillColor=none;align=left;verticalAlign=top;spacingLeft=4;spacingRight=4;overflow=hidden;rotatable=0;points=[[0,0.5],[1,0.5]];portConstraint=eastwest;whiteSpace=wrap;html=1;" vertex="1" parent="Tsm6eNAXbn-egcAqX1Hi-5">
          <mxGeometry y="26" width="230" height="124" as="geometry" />
        </mxCell>
        <mxCell id="Tsm6eNAXbn-egcAqX1Hi-7" value="" style="line;strokeWidth=1;fillColor=none;align=left;verticalAlign=middle;spacingTop=-1;spacingLeft=3;spacingRight=3;rotatable=0;labelPosition=right;points=[];portConstraint=eastwest;strokeColor=inherit;" vertex="1" parent="Tsm6eNAXbn-egcAqX1Hi-5">
          <mxGeometry y="150" width="230" height="8" as="geometry" />
        </mxCell>
        <mxCell id="Tsm6eNAXbn-egcAqX1Hi-8" value="&lt;div&gt;+ changingConditions(Date, Date, int, int, int, int, int)&lt;/div&gt;+ getLog()" style="text;strokeColor=none;fillColor=none;align=left;verticalAlign=top;spacingLeft=4;spacingRight=4;overflow=hidden;rotatable=0;points=[[0,0.5],[1,0.5]];portConstraint=eastwest;whiteSpace=wrap;html=1;" vertex="1" parent="Tsm6eNAXbn-egcAqX1Hi-5">
          <mxGeometry y="158" width="230" height="52" as="geometry" />
        </mxCell>
        <mxCell id="Tsm6eNAXbn-egcAqX1Hi-9" style="edgeStyle=orthogonalEdgeStyle;rounded=0;orthogonalLoop=1;jettySize=auto;html=1;exitX=0;exitY=0.5;exitDx=0;exitDy=0;entryX=1.001;entryY=0.691;entryDx=0;entryDy=0;entryPerimeter=0;endArrow=diamond;endFill=1;" edge="1" parent="1" source="Tsm6eNAXbn-egcAqX1Hi-6" target="Tsm6eNAXbn-egcAqX1Hi-2">
          <mxGeometry relative="1" as="geometry">
            <mxPoint x="1150" y="490" as="targetPoint" />
            <Array as="points">
              <mxPoint x="1156" y="488" />
            </Array>
          </mxGeometry>
        </mxCell>
        <mxCell id="Tsm6eNAXbn-egcAqX1Hi-10" style="edgeStyle=orthogonalEdgeStyle;rounded=0;orthogonalLoop=1;jettySize=auto;html=1;exitX=0;exitY=0.5;exitDx=0;exitDy=0;endArrow=none;endFill=0;jumpStyle=arc;" edge="1" parent="1" source="Tsm6eNAXbn-egcAqX1Hi-2">
          <mxGeometry relative="1" as="geometry">
            <mxPoint x="697" y="620" as="targetPoint" />
            <Array as="points">
              <mxPoint x="937" y="478" />
              <mxPoint x="937" y="620" />
              <mxPoint x="700" y="620" />
            </Array>
          </mxGeometry>
        </mxCell>
        <mxCell id="Tsm6eNAXbn-egcAqX1Hi-16" style="edgeStyle=orthogonalEdgeStyle;rounded=0;orthogonalLoop=1;jettySize=auto;html=1;entryX=0;entryY=0.5;entryDx=0;entryDy=0;endArrow=none;endFill=0;" edge="1" parent="1" source="Tsm6eNAXbn-egcAqX1Hi-12" target="lAlPswCy58fTUQdY8r50-61">
          <mxGeometry relative="1" as="geometry">
            <Array as="points">
              <mxPoint x="986" y="100" />
              <mxPoint x="246" y="100" />
              <mxPoint x="246" y="563" />
            </Array>
          </mxGeometry>
        </mxCell>
        <mxCell id="Tsm6eNAXbn-egcAqX1Hi-17" style="edgeStyle=orthogonalEdgeStyle;rounded=0;orthogonalLoop=1;jettySize=auto;html=1;exitX=0.5;exitY=1.005;exitDx=0;exitDy=0;exitPerimeter=0;endArrow=none;endFill=0;entryX=1.002;entryY=0.272;entryDx=0;entryDy=0;entryPerimeter=0;" edge="1" parent="1" source="Tsm6eNAXbn-egcAqX1Hi-15" target="lAlPswCy58fTUQdY8r50-48">
          <mxGeometry relative="1" as="geometry">
            <mxPoint x="1006" y="320" as="sourcePoint" />
            <mxPoint x="706" y="510" as="targetPoint" />
            <Array as="points">
              <mxPoint x="986" y="410" />
              <mxPoint x="926" y="410" />
              <mxPoint x="926" y="470" />
              <mxPoint x="726" y="470" />
              <mxPoint x="726" y="511" />
            </Array>
          </mxGeometry>
        </mxCell>
        <mxCell id="Tsm6eNAXbn-egcAqX1Hi-12" value="CurrencyClass" style="swimlane;fontStyle=1;align=center;verticalAlign=top;childLayout=stackLayout;horizontal=1;startSize=26;horizontalStack=0;resizeParent=1;resizeParentMax=0;resizeLast=0;collapsible=1;marginBottom=0;whiteSpace=wrap;html=1;" vertex="1" parent="1">
          <mxGeometry x="866" y="140" width="240" height="160" as="geometry" />
        </mxCell>
        <mxCell id="Tsm6eNAXbn-egcAqX1Hi-13" value="&lt;div&gt;- defaultCurrency: String&lt;/div&gt;&lt;div&gt;- currencyList: list&amp;lt;String, String, int&amp;gt;&lt;br&gt;&lt;/div&gt;" style="text;strokeColor=none;fillColor=none;align=left;verticalAlign=top;spacingLeft=4;spacingRight=4;overflow=hidden;rotatable=0;points=[[0,0.5],[1,0.5]];portConstraint=eastwest;whiteSpace=wrap;html=1;" vertex="1" parent="Tsm6eNAXbn-egcAqX1Hi-12">
          <mxGeometry y="26" width="240" height="44" as="geometry" />
        </mxCell>
        <mxCell id="Tsm6eNAXbn-egcAqX1Hi-14" value="" style="line;strokeWidth=1;fillColor=none;align=left;verticalAlign=middle;spacingTop=-1;spacingLeft=3;spacingRight=3;rotatable=0;labelPosition=right;points=[];portConstraint=eastwest;strokeColor=inherit;" vertex="1" parent="Tsm6eNAXbn-egcAqX1Hi-12">
          <mxGeometry y="70" width="240" height="8" as="geometry" />
        </mxCell>
        <mxCell id="Tsm6eNAXbn-egcAqX1Hi-15" value="&lt;div&gt;+ toDefaultCurrency(int, String): int&lt;/div&gt;&lt;div&gt;+ toAnotherCurrency(int, String, String): int&lt;br&gt;&lt;/div&gt;&lt;div&gt;+ getCurrency(String, String): int&lt;br&gt;&lt;/div&gt;&lt;div&gt;+ getDefaultCurrency(): String&lt;br&gt;&lt;/div&gt;&lt;div&gt;+ changeDefaultCurrency(String)&lt;br&gt;&lt;/div&gt;" style="text;strokeColor=none;fillColor=none;align=left;verticalAlign=top;spacingLeft=4;spacingRight=4;overflow=hidden;rotatable=0;points=[[0,0.5],[1,0.5]];portConstraint=eastwest;whiteSpace=wrap;html=1;" vertex="1" parent="Tsm6eNAXbn-egcAqX1Hi-12">
          <mxGeometry y="78" width="240" height="82" as="geometry" />
        </mxCell>
        <mxCell id="Tsm6eNAXbn-egcAqX1Hi-18" value="LogObject" style="swimlane;fontStyle=1;align=center;verticalAlign=top;childLayout=stackLayout;horizontal=1;startSize=26;horizontalStack=0;resizeParent=1;resizeParentMax=0;resizeLast=0;collapsible=1;marginBottom=0;whiteSpace=wrap;html=1;" vertex="1" parent="1">
          <mxGeometry x="1212" y="190" width="160" height="80" as="geometry">
            <mxRectangle x="302" y="370" width="120" height="30" as="alternateBounds" />
          </mxGeometry>
        </mxCell>
        <mxCell id="Tsm6eNAXbn-egcAqX1Hi-20" value="&lt;div&gt;- data: String&lt;/div&gt;" style="text;strokeColor=none;fillColor=none;align=left;verticalAlign=top;spacingLeft=4;spacingRight=4;overflow=hidden;rotatable=0;points=[[0,0.5],[1,0.5]];portConstraint=eastwest;whiteSpace=wrap;html=1;" vertex="1" parent="Tsm6eNAXbn-egcAqX1Hi-18">
          <mxGeometry y="26" width="160" height="24" as="geometry" />
        </mxCell>
        <mxCell id="Tsm6eNAXbn-egcAqX1Hi-19" value="" style="line;strokeWidth=1;fillColor=none;align=left;verticalAlign=middle;spacingTop=-1;spacingLeft=3;spacingRight=3;rotatable=0;labelPosition=right;points=[];portConstraint=eastwest;strokeColor=inherit;" vertex="1" parent="Tsm6eNAXbn-egcAqX1Hi-18">
          <mxGeometry y="50" width="160" height="2" as="geometry" />
        </mxCell>
        <mxCell id="Tsm6eNAXbn-egcAqX1Hi-21" value="+ getData(): String" style="text;strokeColor=none;fillColor=none;align=left;verticalAlign=top;spacingLeft=4;spacingRight=4;overflow=hidden;rotatable=0;points=[[0,0.5],[1,0.5]];portConstraint=eastwest;whiteSpace=wrap;html=1;" vertex="1" parent="Tsm6eNAXbn-egcAqX1Hi-18">
          <mxGeometry y="52" width="160" height="28" as="geometry" />
        </mxCell>
      </root>
    </mxGraphModel>
  </diagram>
</mxfile>
